<svg width="41" height="28" viewBox="0 0 41 28" fill="none" xmlns="http://www.w3.org/2000/svg">
<path d="M5.3872 9.21636H21.6347C21.8306 9.21636 22.0184 9.12883 22.1569 8.97302C22.2954 8.8172 22.3732 8.60588 22.3732 8.38553C22.3732 8.16517 22.2954 7.95385 22.1569 7.79803C22.0184 7.64222 21.8306 7.55469 21.6347 7.55469H5.3872C5.19134 7.55469 5.00349 7.64222 4.86499 7.79803C4.72649 7.95385 4.64868 8.16517 4.64868 8.38553C4.64868 8.60588 4.72649 8.8172 4.86499 8.97302C5.00349 9.12883 5.19134 9.21636 5.3872 9.21636Z" fill="#6D8496"/>
<path d="M16.0727 11.1377H5.41028C5.20829 11.1377 5.01458 11.2252 4.87175 11.381C4.72892 11.5369 4.64868 11.7482 4.64868 11.9685C4.64868 12.1889 4.72892 12.4002 4.87175 12.556C5.01458 12.7118 5.20829 12.7994 5.41028 12.7994H16.0727C16.2747 12.7994 16.4684 12.7118 16.6112 12.556C16.7541 12.4002 16.8343 12.1889 16.8343 11.9685C16.8343 11.7482 16.7541 11.5369 16.6112 11.381C16.4684 11.2252 16.2747 11.1377 16.0727 11.1377Z" fill="#6D8496"/>
<path d="M16.0727 18.3086H5.41028C5.20829 18.3086 5.01458 18.3961 4.87175 18.5519C4.72892 18.7078 4.64868 18.9191 4.64868 19.1394C4.64868 19.3598 4.72892 19.5711 4.87175 19.7269C5.01458 19.8827 5.20829 19.9703 5.41028 19.9703H16.0727C16.2747 19.9703 16.4684 19.8827 16.6112 19.7269C16.7541 19.5711 16.8343 19.3598 16.8343 19.1394C16.8343 18.9191 16.7541 18.7078 16.6112 18.5519C16.4684 18.3961 16.2747 18.3086 16.0727 18.3086Z" fill="#6D8496"/>
<path d="M21.6347 14.7207H5.3872C5.19134 14.7207 5.00349 14.8082 4.86499 14.964C4.72649 15.1199 4.64868 15.3312 4.64868 15.5515C4.64868 15.7719 4.72649 15.9832 4.86499 16.139C5.00349 16.2948 5.19134 16.3824 5.3872 16.3824H21.6347C21.8306 16.3824 22.0184 16.2948 22.1569 16.139C22.2954 15.9832 22.3732 15.7719 22.3732 15.5515C22.3732 15.3312 22.2954 15.1199 22.1569 14.964C22.0184 14.8082 21.8306 14.7207 21.6347 14.7207Z" fill="#6D8496"/>
<path d="M31.2829 13.207H34.9859C35.0517 13.2067 35.1162 13.2259 35.1711 13.2623C35.226 13.2987 35.2687 13.3506 35.294 13.4114C35.3192 13.4722 35.3258 13.5392 35.3129 13.6038C35.2999 13.6683 35.268 13.7276 35.2213 13.7739L33.3681 15.6238C33.306 15.6855 33.222 15.7202 33.1344 15.7202C33.0468 15.7202 32.9628 15.6855 32.9007 15.6238L31.0475 13.7739C31.0008 13.7276 30.9689 13.6683 30.9559 13.6038C30.943 13.5392 30.9495 13.4722 30.9748 13.4114C31 13.3506 31.0428 13.2987 31.0977 13.2623C31.1526 13.2259 31.217 13.2067 31.2829 13.207Z" fill="#6D8496"/>
</svg>
