<svg width="25" height="25" viewBox="0 0 25 25" fill="none" xmlns="http://www.w3.org/2000/svg">
<g id="Component 28">
<path id="Icon" d="M15.4587 11.2937C16.1862 10.7912 16.6962 9.96617 16.6962 9.20117C16.6962 7.50617 15.3837 6.20117 13.6962 6.20117H10.2057C9.54458 6.20117 9.00867 6.73708 9.00867 7.39817V15.5042C9.00867 16.1653 9.54458 16.7012 10.2057 16.7012H14.2887C15.8562 16.7012 17.0712 15.4262 17.0712 13.8587C17.0712 12.7187 16.4262 11.7437 15.4587 11.2937ZM11.2587 8.07617H13.5087C14.1312 8.07617 14.6337 8.57867 14.6337 9.20117C14.6337 9.82367 14.1312 10.3262 13.5087 10.3262H11.2587V8.07617ZM13.8837 14.8262H11.2587V12.5762H13.8837C14.5062 12.5762 15.0087 13.0787 15.0087 13.7012C15.0087 14.3237 14.5062 14.8262 13.8837 14.8262Z" fill="#6D8496"/>
</g>
</svg>
