    <svg width="9" height="9" viewBox="0 0 9 9" fill="none" xmlns="http://www.w3.org/2000/svg">
<path d="M2.54876 3.20704H6.25165C6.3175 3.20665 6.38196 3.22589 6.43683 3.26229C6.4917 3.29869 6.53449 3.3506 6.55974 3.41141C6.58499 3.47223 6.59156 3.53918 6.57861 3.60374C6.56565 3.6683 6.53377 3.72754 6.48702 3.77391L4.63392 5.6237C4.57181 5.68544 4.48779 5.7201 4.40021 5.7201C4.31263 5.7201 4.22861 5.68544 4.1665 5.6237L2.3134 3.77391C2.26664 3.72754 2.23476 3.6683 2.22181 3.60374C2.20886 3.53918 2.21542 3.47223 2.24067 3.41141C2.26592 3.3506 2.30871 3.29869 2.36358 3.26229C2.41845 3.22589 2.48292 3.20665 2.54876 3.20704Z" fill="#6D8496"/>
</svg>
