<svg width="25" height="25" viewBox="0 0 25 25" fill="none" xmlns="http://www.w3.org/2000/svg">
<path d="M14.6836 6.23389C14.7927 6.26441 14.8947 6.31614 14.9838 6.38611C15.0729 6.45609 15.1473 6.54293 15.2028 6.64169C15.2584 6.74045 15.2939 6.84918 15.3073 6.96167C15.3208 7.07415 15.312 7.18819 15.2814 7.29727L12.7344 16.3716C12.6727 16.5919 12.526 16.7785 12.3266 16.8906C12.1273 17.0026 11.8916 17.0309 11.6714 16.9692C11.4512 16.9074 11.2645 16.7607 11.1524 16.5614C11.0404 16.362 11.0121 16.1263 11.0739 15.9061L13.6208 6.83053C13.6514 6.72148 13.7031 6.61952 13.7731 6.53049C13.8431 6.44145 13.93 6.36708 14.0287 6.31162C14.1275 6.25616 14.2362 6.2207 14.3487 6.20726C14.4611 6.19382 14.5745 6.20325 14.6836 6.23389ZM10.6255 8.55321C10.787 8.71487 10.8777 8.93401 10.8777 9.1625C10.8777 9.39098 10.787 9.61012 10.6255 9.77179L8.79767 11.6014L10.6267 13.4304C10.7883 13.5921 10.8791 13.8115 10.8791 14.0402C10.879 14.2689 10.7881 14.4882 10.6264 14.6498C10.4646 14.8115 10.2453 14.9023 10.0166 14.9022C9.78792 14.9022 9.56862 14.8113 9.40695 14.6495L6.96809 12.2107C6.80663 12.049 6.71594 11.8299 6.71594 11.6014C6.71594 11.3729 6.80663 11.1537 6.96809 10.9921L9.40638 8.55321C9.48645 8.47309 9.58152 8.40953 9.68616 8.36616C9.7908 8.3228 9.90296 8.30048 10.0162 8.30048C10.1295 8.30048 10.2417 8.3228 10.3463 8.36616C10.451 8.40953 10.5454 8.47309 10.6255 8.55321ZM15.7297 9.77179C15.645 9.69285 15.5771 9.59766 15.5299 9.4919C15.4828 9.38614 15.4575 9.27197 15.4554 9.1562C15.4534 9.04043 15.4747 8.92544 15.518 8.81808C15.5614 8.71072 15.6259 8.61319 15.7078 8.53132C15.7897 8.44945 15.8872 8.3849 15.9946 8.34154C16.1019 8.29818 16.2169 8.27688 16.3327 8.27892C16.4485 8.28097 16.5626 8.3063 16.6684 8.35343C16.7741 8.40055 16.8693 8.4685 16.9483 8.55321L19.3871 10.9915C19.5488 11.1532 19.6396 11.3725 19.6396 11.6011C19.6396 11.8297 19.5488 12.049 19.3871 12.2107L16.9488 14.6495C16.8688 14.7296 16.7738 14.7932 16.6691 14.8365C16.5645 14.8799 16.4524 14.9022 16.3392 14.9022C16.226 14.9023 16.1138 14.88 16.0092 14.8367C15.9046 14.7934 15.8095 14.7299 15.7294 14.6498C15.6493 14.5698 15.5858 14.4747 15.5424 14.3701C15.4991 14.2655 15.4767 14.1534 15.4767 14.0402C15.4767 13.9269 15.499 13.8148 15.5423 13.7102C15.5856 13.6056 15.6491 13.5105 15.7291 13.4304L17.5581 11.6014L15.7297 9.77179Z" fill="#6D8496"/>
</svg>
