<svg width="28" height="28" viewBox="0 0 28 28" fill="none" xmlns="http://www.w3.org/2000/svg">
<path d="M18.2998 8.88379H9.43759C8.84999 8.88379 8.28646 9.11722 7.87096 9.53272C7.45547 9.94822 7.22205 10.5118 7.22205 11.0994V17.7461C7.22205 18.3337 7.45547 18.8973 7.87096 19.3128C8.28646 19.7283 8.84999 19.9617 9.43759 19.9617H11.0439L13.5092 22.046C13.6092 22.1307 13.736 22.1771 13.867 22.1771C13.998 22.1771 14.1248 22.1307 14.2248 22.046L16.6935 19.9617H18.2998C18.8874 19.9617 19.4509 19.7283 19.8664 19.3128C20.2819 18.8973 20.5153 18.3337 20.5153 17.7461V11.0994C20.5153 10.5118 20.2819 9.94822 19.8664 9.53272C19.4509 9.11722 18.8874 8.88379 18.2998 8.88379ZM19.4076 17.7461C19.4076 18.0399 19.2908 18.3217 19.0831 18.5295C18.8753 18.7372 18.5936 18.8539 18.2998 18.8539H16.6935C16.4317 18.854 16.1783 18.9468 15.9784 19.1159L13.8687 20.8978L11.76 19.1159C11.5598 18.9466 11.3061 18.8537 11.0439 18.8539H9.43759C9.14379 18.8539 8.86203 18.7372 8.65428 18.5295C8.44653 18.3217 8.32982 18.0399 8.32982 17.7461V11.0994C8.32982 10.8056 8.44653 10.5238 8.65428 10.316C8.86203 10.1083 9.14379 9.99158 9.43759 9.99158H18.2998C18.5936 9.99158 18.8753 10.1083 19.0831 10.316C19.2908 10.5238 19.4076 10.8056 19.4076 11.0994V17.7461Z" fill="#6D8496"/>
<path d="M10.2609 13.5364H12.16C12.2607 13.5364 12.3573 13.4663 12.4285 13.3417C12.4997 13.217 12.5398 13.048 12.5398 12.8717C12.5398 12.6954 12.4997 12.5264 12.4285 12.4017C12.3573 12.2771 12.2607 12.207 12.16 12.207H10.2609C10.1602 12.207 10.0636 12.2771 9.99235 12.4017C9.92112 12.5264 9.8811 12.6954 9.8811 12.8717C9.8811 13.048 9.92112 13.217 9.99235 13.3417C10.0636 13.4663 10.1602 13.5364 10.2609 13.5364Z" fill="#6D8496"/>
<path d="M15.9739 14.8682H10.435C10.2881 14.8682 10.1472 14.9382 10.0433 15.0628C9.93946 15.1875 9.8811 15.3565 9.8811 15.5328C9.8811 15.7091 9.93946 15.8782 10.0433 16.0028C10.1472 16.1275 10.2881 16.1975 10.435 16.1975H15.9739C16.1208 16.1975 16.2616 16.1275 16.3655 16.0028C16.4694 15.8782 16.5277 15.7091 16.5277 15.5328C16.5277 15.3565 16.4694 15.1875 16.3655 15.0628C16.2616 14.9382 16.1208 14.8682 15.9739 14.8682Z" fill="#6D8496"/>
</svg>
