<svg width="41" height="28" viewBox="0 0 41 28" fill="none" xmlns="http://www.w3.org/2000/svg">
<path d="M7.03727 12.9557C6.34768 12.9557 5.79102 13.5124 5.79102 14.202C5.79102 14.8916 6.34768 15.4482 7.03727 15.4482C7.72687 15.4482 8.28353 14.8916 8.28353 14.202C8.28353 13.5124 7.72687 12.9557 7.03727 12.9557ZM7.03727 7.9707C6.34768 7.9707 5.79102 8.52736 5.79102 9.21696C5.79102 9.90655 6.34768 10.4632 7.03727 10.4632C7.72687 10.4632 8.28353 9.90655 8.28353 9.21696C8.28353 8.52736 7.72687 7.9707 7.03727 7.9707ZM7.03727 17.9407C6.34768 17.9407 5.79102 18.5057 5.79102 19.187C5.79102 19.8683 6.35599 20.4332 7.03727 20.4332C7.71856 20.4332 8.28353 19.8683 8.28353 19.187C8.28353 18.5057 7.72687 17.9407 7.03727 17.9407ZM9.52979 20.0178H21.1615V18.3561H9.52979V20.0178ZM9.52979 15.0328H21.1615V13.3711H9.52979V15.0328ZM9.52979 8.38612V10.0478H21.1615V8.38612H9.52979Z" fill="#6D8496"/>
<path d="M31.3442 13.207H35.0472C35.113 13.2067 35.1775 13.2259 35.2324 13.2623C35.2872 13.2987 35.33 13.3506 35.3553 13.4114C35.3805 13.4722 35.3871 13.5392 35.3741 13.6038C35.3612 13.6683 35.3293 13.7276 35.2825 13.7739L33.4294 15.6238C33.3673 15.6855 33.2833 15.7202 33.1957 15.7202C33.1081 15.7202 33.0241 15.6855 32.962 15.6238L31.1088 13.7739C31.062 13.7276 31.0302 13.6683 31.0172 13.6038C31.0043 13.5392 31.0108 13.4722 31.0361 13.4114C31.0613 13.3506 31.1041 13.2987 31.159 13.2623C31.2139 13.2259 31.2783 13.2067 31.3442 13.207Z" fill="#6D8496"/>
</svg>
