<svg width="25" height="25" viewBox="0 0 25 25" fill="none" xmlns="http://www.w3.org/2000/svg">
<path d="M11.5069 6.20117C11.1764 6.20117 10.9084 6.46913 10.9084 6.79967V7.85267C10.9084 8.18322 11.1764 8.45117 11.5069 8.45117H11.6592C12.0886 8.45117 12.3783 8.89006 12.2095 9.28493L10.1562 14.0879C10.062 14.3083 9.84552 14.4512 9.60591 14.4512H8.50694C8.1764 14.4512 7.90845 14.7191 7.90845 15.0497V16.1027C7.90845 16.4332 8.1764 16.7012 8.50694 16.7012H13.31C13.6405 16.7012 13.9084 16.4332 13.9084 16.1027V15.0497C13.9084 14.7191 13.6405 14.4512 13.31 14.4512H13.1577C12.7283 14.4512 12.4386 14.0123 12.6074 13.6174L14.6607 8.81441C14.7549 8.59408 14.9714 8.45117 15.211 8.45117H16.31C16.6405 8.45117 16.9084 8.18322 16.9084 7.85267V6.79967C16.9084 6.46913 16.6405 6.20117 16.31 6.20117H11.5069Z" fill="#6D8496"/>
</svg>
