<svg width="25" height="25" viewBox="0 0 25 25" fill="none" xmlns="http://www.w3.org/2000/svg">
<path d="M6.50032 12.2012C6.50032 10.9187 7.54282 9.87617 8.82531 9.87617H11.8253V8.45117H8.82531C6.75532 8.45117 5.07532 10.1312 5.07532 12.2012C5.07532 14.2712 6.75532 15.9512 8.82531 15.9512H11.8253V14.5262H8.82531C7.54282 14.5262 6.50032 13.4837 6.50032 12.2012ZM9.57531 12.9512H15.5753V11.4512H9.57531V12.9512ZM16.3253 8.45117H13.3253V9.87617H16.3253C17.6078 9.87617 18.6503 10.9187 18.6503 12.2012C18.6503 13.4837 17.6078 14.5262 16.3253 14.5262H13.3253V15.9512H16.3253C18.3953 15.9512 20.0753 14.2712 20.0753 12.2012C20.0753 10.1312 18.3953 8.45117 16.3253 8.45117Z" fill="#6D8496"/>
</svg>
