<svg width="25" height="25" viewBox="0 0 25 25" fill="none" xmlns="http://www.w3.org/2000/svg">
<path d="M16.6587 11.7906C16.898 11.7908 17.128 11.8829 17.3011 12.048C17.4743 12.2131 17.5773 12.4385 17.5888 12.6775C17.6003 12.9164 17.5194 13.1506 17.3629 13.3316C17.2064 13.5126 16.9863 13.6264 16.7482 13.6495L16.6587 13.6538H16.1382C16.0108 13.6538 15.9247 13.7845 15.965 13.9053C16.6233 15.8803 15.1962 17.918 13.1393 17.9987L13.0126 18.0012H11.9562C11.2634 18.0013 10.5832 17.8156 9.98657 17.4634C9.38994 17.1112 8.89869 16.6055 8.564 15.9989L8.49134 15.8598L8.38079 15.6393C8.2903 15.4674 8.25619 15.2715 8.28329 15.0791C8.30874 14.8925 8.39019 14.718 8.51687 14.5787C8.64355 14.4394 8.80951 14.3417 8.99284 14.2987C9.17617 14.2556 9.36825 14.2692 9.54371 14.3375C9.71918 14.4059 9.86978 14.5259 9.97564 14.6816L10.0141 14.7425L10.1576 15.027C10.315 15.3417 10.5522 15.6096 10.8456 15.804C11.139 15.9983 11.4783 16.1122 11.8295 16.1343L11.9562 16.138H13.0126C13.2846 16.1383 13.5493 16.0498 13.7664 15.8858C13.9835 15.7219 14.1411 15.4915 14.2152 15.2297C14.2893 14.968 14.2759 14.6892 14.1769 14.4357C14.078 14.1823 13.899 13.9682 13.6671 13.8258L13.5715 13.7724C13.4151 13.6944 13.2426 13.6538 13.0678 13.6538H7.96407C7.72483 13.6537 7.49481 13.5615 7.32167 13.3964C7.14852 13.2313 7.04553 13.006 7.03404 12.767C7.02254 12.528 7.10342 12.2938 7.25991 12.1128C7.4164 11.9319 7.63652 11.8181 7.87464 11.795L7.96407 11.7906H16.6587ZM12.6666 6.20117C13.3594 6.20106 14.0396 6.38676 14.6362 6.73893C15.2329 7.09109 15.7241 7.59684 16.0588 8.20345L16.1315 8.34256L16.2408 8.56117C16.3499 8.77281 16.3739 9.01818 16.3079 9.24695C16.2418 9.47572 16.0907 9.67055 15.8856 9.79146C15.6805 9.91238 15.4369 9.95021 15.2047 9.89721C14.9726 9.8442 14.7695 9.70438 14.6372 9.50641L14.6043 9.45238L14.4652 9.17539C14.3078 8.86064 14.0706 8.5927 13.7772 8.39838C13.4838 8.20406 13.1445 8.09015 12.7933 8.06806L12.6666 8.06433H11.6102C11.3382 8.064 11.0735 8.15254 10.8564 8.3165C10.6393 8.48046 10.4817 8.71084 10.4076 8.9726C10.3335 9.23437 10.3469 9.51317 10.4459 9.76659C10.5448 10.02 10.7238 10.2342 10.9557 10.3765L11.0513 10.4299C11.2651 10.5368 11.1891 10.8591 10.95 10.8591H9.2704C9.04708 10.8591 8.83623 10.7413 8.74848 10.536C8.71501 10.4576 8.68474 10.3779 8.65778 10.297C7.99947 8.32207 9.42663 6.28439 11.4835 6.20366L11.6102 6.20117H12.6666Z" fill="#6D8496"/>
</svg>
