<svg width="22" height="22" viewBox="0 0 22 22" fill="none" xmlns="http://www.w3.org/2000/svg">
<path d="M7.33325 5.5H20.1666M7.33325 11.4583H20.1666M7.33325 17.4167H20.1666" stroke="#374957" stroke-width="2.0625" stroke-linecap="round" stroke-linejoin="round"/>
<path d="M3.4375 5.95801C3.8172 5.95801 4.125 5.6502 4.125 5.27051C4.125 4.89081 3.8172 4.58301 3.4375 4.58301C3.0578 4.58301 2.75 4.89081 2.75 5.27051C2.75 5.6502 3.0578 5.95801 3.4375 5.95801Z" stroke="#374957" stroke-width="1.375" stroke-linecap="round" stroke-linejoin="round"/>
<path d="M3.4375 11.917C3.8172 11.917 4.125 11.6092 4.125 11.2295C4.125 10.8498 3.8172 10.542 3.4375 10.542C3.0578 10.542 2.75 10.8498 2.75 11.2295C2.75 11.6092 3.0578 11.917 3.4375 11.917Z" stroke="#374957" stroke-width="1.375" stroke-linecap="round" stroke-linejoin="round"/>
<path d="M3.4375 17.875C3.8172 17.875 4.125 17.5672 4.125 17.1875C4.125 16.8078 3.8172 16.5 3.4375 16.5C3.0578 16.5 2.75 16.8078 2.75 17.1875C2.75 17.5672 3.0578 17.875 3.4375 17.875Z" stroke="#374957" stroke-width="1.375" stroke-linecap="round" stroke-linejoin="round"/>
</svg>
