<svg width="20" height="20" viewBox="0 0 20 20" fill="none" xmlns="http://www.w3.org/2000/svg">
<path d="M3.76741 8.54785L0.767411 5.54785C0.662531 5.44333 0.579314 5.31914 0.522533 5.1824C0.465752 5.04565 0.436523 4.89904 0.436523 4.75098C0.436523 4.60291 0.465752 4.4563 0.522533 4.31955C0.579314 4.18281 0.662531 4.05862 0.767411 3.9541L3.76741 0.9541C3.87206 0.849453 3.99629 0.766442 4.13302 0.709807C4.26975 0.653173 4.41629 0.624023 4.56429 0.624023C4.71228 0.624023 4.85882 0.653173 4.99555 0.709807C5.13228 0.766442 5.25651 0.849453 5.36116 0.9541C5.46581 1.05875 5.54882 1.18298 5.60545 1.31971C5.66209 1.45644 5.69124 1.60298 5.69124 1.75097C5.69124 1.89897 5.66209 2.04551 5.60545 2.18224C5.54882 2.31897 5.46581 2.4432 5.36116 2.54785L3.1571 4.75191L5.35929 6.95598C5.57063 7.16732 5.68936 7.45396 5.68936 7.75285C5.68936 8.05174 5.57063 8.33838 5.35929 8.54973C5.14794 8.76107 4.8613 8.8798 4.56241 8.8798C4.26352 8.8798 3.97688 8.76107 3.76554 8.54973L3.76741 8.54785ZM8.26741 8.54785C8.37193 8.65273 8.49612 8.73595 8.63286 8.79273C8.76961 8.84951 8.91622 8.87874 9.06429 8.87874C9.21235 8.87874 9.35896 8.84951 9.49571 8.79273C9.63245 8.73595 9.75664 8.65273 9.86116 8.54785L12.8612 5.54785C12.966 5.44333 13.0493 5.31914 13.106 5.1824C13.1628 5.04565 13.192 4.89904 13.192 4.75098C13.192 4.60291 13.1628 4.4563 13.106 4.31955C13.0493 4.18281 12.966 4.05862 12.8612 3.9541L9.86116 0.9541C9.64982 0.742755 9.36317 0.624023 9.06429 0.624023C8.7654 0.624023 8.47875 0.742755 8.26741 0.9541C8.05607 1.16544 7.93733 1.45209 7.93733 1.75097C7.93733 2.04986 8.05607 2.33651 8.26741 2.54785L10.4696 4.75191L8.26741 6.95598C8.16281 7.06046 8.07983 7.18453 8.02322 7.3211C7.9666 7.45768 7.93746 7.60407 7.93746 7.75191C7.93746 7.89975 7.9666 8.04615 8.02322 8.18272C8.07983 8.31929 8.16281 8.44337 8.26741 8.54785ZM17.6883 2.12691H15.8133C15.515 2.12691 15.2288 2.24544 15.0179 2.45642C14.8069 2.6674 14.6883 2.95354 14.6883 3.25191C14.6883 3.55028 14.8069 3.83643 15.0179 4.04741C15.2288 4.25839 15.515 4.37691 15.8133 4.37691H17.3133V17.1269H4.56335V11.8769C4.56335 11.5785 4.44482 11.2924 4.23384 11.0814C4.02286 10.8704 3.73672 10.7519 3.43835 10.7519C3.13998 10.7519 2.85383 10.8704 2.64285 11.0814C2.43187 11.2924 2.31335 11.5785 2.31335 11.8769V17.5019C2.31335 17.9992 2.51089 18.4761 2.86252 18.8277C3.21415 19.1794 3.69107 19.3769 4.18835 19.3769H17.6883C18.1856 19.3769 18.6625 19.1794 19.0142 18.8277C19.3658 18.4761 19.5633 17.9992 19.5633 17.5019V4.00191C19.5633 3.50463 19.3658 3.02772 19.0142 2.67609C18.6625 2.32446 18.1856 2.12691 17.6883 2.12691Z" fill="#374957"/>
</svg>
