<svg width="20" height="16" viewBox="0 0 20 16" fill="none" xmlns="http://www.w3.org/2000/svg">
<path d="M2.57845 1.66699V8.00033M2.57845 8.00033V14.3337M2.57845 8.00033H10.4951M10.4951 1.66699V8.00033M10.4951 8.00033V14.3337M0.995117 1.66699H4.16178M8.91178 1.66699H12.0785M12.0785 14.3337H8.91178M4.16178 14.3337H0.995117" stroke="#374957" stroke-width="2" stroke-linecap="round" stroke-linejoin="round"/>
<path d="M15.5049 6.50019C17.2049 5.50019 19.0049 6.50019 19.0049 8.00019C19.0049 8.53062 18.7942 9.03933 18.4191 9.4144C18.044 9.78947 17.5353 10.0002 17.0049 10.0002C17.5353 10.0002 18.044 10.2109 18.4191 10.586C18.7942 10.961 19.0049 11.4698 19.0049 12.0002C19.0049 13.8002 17.0049 15.0002 15.0049 13.5002" stroke="#374957" stroke-width="2" stroke-linecap="round" stroke-linejoin="round"/>
</svg>
