<svg width="30" height="30" viewBox="0 0 30 30" fill="none" xmlns="http://www.w3.org/2000/svg">
<rect x="0.25" y="0.25" width="29.5" height="29.5" rx="2.75" fill="#F2F7FA"/>
<rect x="0.25" y="0.25" width="29.5" height="29.5" rx="2.75" stroke="#B0C3D1" stroke-width="0.5"/>
<path d="M11.334 9.5H24.1673M11.334 15.4583H24.1673M11.334 21.4167H24.1673" stroke="#374957" stroke-width="2.0625" stroke-linecap="round" stroke-linejoin="round"/>
<path d="M7.69861 11V7.13371L6.47668 7.62248V7.00212L8.20304 6.37549H8.34403V11H7.69861Z" fill="#374957"/>
<path d="M6.26676 17V16.5081L8.01819 14.7817C8.23542 14.5687 8.40461 14.3755 8.52576 14.2021C8.64899 14.0267 8.71061 13.8387 8.71061 13.6381C8.71061 13.4355 8.63437 13.2601 8.48189 13.1118C8.3315 12.9614 8.12263 12.8862 7.85527 12.8862C7.58164 12.8862 7.35396 12.9677 7.17224 13.1306C6.99261 13.2914 6.90279 13.5107 6.90279 13.7885V13.8199H6.26363V13.7885C6.26363 13.3708 6.41507 13.0261 6.71794 12.7546C7.02081 12.481 7.39992 12.3442 7.85527 12.3442C8.30226 12.3442 8.66257 12.4705 8.9362 12.7233C9.20983 12.9739 9.34664 13.2684 9.34664 13.6068C9.34664 13.9055 9.25996 14.175 9.08659 14.4152C8.91322 14.6533 8.69912 14.8956 8.4443 15.142L7.08765 16.458H9.47196V17H6.26676Z" fill="#374957"/>
<path d="M6.16964 21.7937V21.7624H6.79626V21.7937C6.79626 22.036 6.88504 22.224 7.06258 22.3577C7.24013 22.4914 7.47616 22.5582 7.77067 22.5582C8.06519 22.5582 8.30017 22.4914 8.47563 22.3577C8.65108 22.224 8.73881 22.0152 8.73881 21.7311C8.73881 21.4512 8.63959 21.2402 8.44116 21.0982C8.24482 20.9561 7.98059 20.8851 7.64848 20.8851H7.24744V20.3619H7.61401C7.92106 20.3619 8.15814 20.2951 8.32524 20.1614C8.49234 20.0256 8.57589 19.8376 8.57589 19.5974C8.57589 19.3572 8.50278 19.1776 8.35657 19.0585C8.21244 18.9395 8.01714 18.8799 7.77067 18.8799C7.52629 18.8799 7.32472 18.9395 7.16597 19.0585C7.00723 19.1776 6.92786 19.3478 6.92786 19.5692V19.6005H6.30123V19.5692C6.30123 19.2308 6.43909 18.9426 6.7148 18.7045C6.99261 18.4643 7.34456 18.3442 7.77067 18.3442C8.19678 18.3442 8.54456 18.458 8.81401 18.6857C9.08554 18.9113 9.22131 19.2026 9.22131 19.5598C9.22131 19.7687 9.16074 19.9682 9.03959 20.1582C8.92053 20.3462 8.73359 20.4935 8.47876 20.6V20.6125C8.75448 20.6794 8.97484 20.812 9.13985 21.0105C9.30695 21.2068 9.3905 21.4491 9.3905 21.7373C9.3905 22.1593 9.23698 22.4914 8.92993 22.7337C8.62497 22.9739 8.23855 23.094 7.77067 23.094C7.30279 23.094 6.91846 22.9728 6.61768 22.7306C6.31898 22.4862 6.16964 22.1739 6.16964 21.7937Z" fill="#374957"/>
</svg>
