<svg width="21" height="21" viewBox="0 0 21 21" fill="none" xmlns="http://www.w3.org/2000/svg">
<g clip-path="url(#clip0_5336_115151)">
<path fill-rule="evenodd" clip-rule="evenodd" d="M12.0979 17.0625C12.016 16.9476 11.9564 16.8168 11.9226 16.6777C11.8887 16.5385 11.8812 16.3937 11.9005 16.2515C11.9198 16.1093 11.9655 15.9725 12.035 15.8489C12.1045 15.7253 12.1965 15.6174 12.3057 15.5312C13.9307 14.2481 14.8628 13.0001 15.3947 11.9107C14.6629 12.109 13.8905 12.0624 13.1849 11.7773C12.4794 11.4922 11.8758 10.9828 11.4579 10.3199C11.0401 9.65704 10.8288 8.87357 10.8534 8.07844C10.8781 7.28331 11.1374 6.51602 11.5954 5.88321C12.0534 5.25039 12.6873 4.7835 13.409 4.54743C14.1307 4.31136 14.9044 4.31783 15.6224 4.56596C16.3404 4.81408 16.9672 5.29152 17.4156 5.93192C17.864 6.57232 18.1117 7.34386 18.1243 8.1393C18.2574 9.48256 18.0762 10.8397 17.5965 12.0923C16.9762 13.7395 15.7636 15.5355 13.5525 17.2812C13.4434 17.3674 13.3191 17.4301 13.187 17.4658C13.0548 17.5014 12.9172 17.5093 12.7821 17.489C12.6471 17.4687 12.5171 17.4206 12.3997 17.3474C12.2823 17.2742 12.1797 17.1774 12.0979 17.0625ZM4.2011 17.2812C4.09194 17.3674 3.96772 17.4301 3.83554 17.4658C3.70336 17.5014 3.5658 17.5093 3.43073 17.489C3.29565 17.4687 3.16569 17.4206 3.04828 17.3474C2.93087 17.2742 2.8283 17.1774 2.74643 17.0625C2.66456 16.9476 2.60499 16.8168 2.57113 16.6777C2.53727 16.5385 2.52977 16.3937 2.54906 16.2515C2.56836 16.1093 2.61408 15.9725 2.6836 15.8489C2.75312 15.7253 2.84508 15.6174 2.95424 15.5312C4.57931 14.2481 5.51134 13.0001 6.04333 11.9107C5.31145 12.109 4.53907 12.0624 3.83353 11.7773C3.12799 11.4922 2.52434 10.9828 2.1065 10.3199C1.68866 9.65704 1.47737 8.87357 1.50202 8.07844C1.52666 7.28331 1.78601 6.51602 2.24401 5.88321C2.70201 5.25039 3.33591 4.7835 4.05761 4.54743C4.7793 4.31136 5.55293 4.31783 6.27097 4.56596C6.98901 4.81408 7.61578 5.29152 8.06416 5.93192C8.51255 6.57232 8.76027 7.34386 8.7729 8.1393C8.90596 9.48256 8.72474 10.8397 8.24507 12.0923C7.62372 13.7395 6.41219 15.5355 4.2011 17.2812ZM14.4877 9.84343C14.8736 9.84336 15.2458 9.69253 15.5322 9.42015C15.8186 9.14776 15.9988 8.77321 16.0379 8.369L16.0462 8.1918C16.0442 7.86778 15.951 7.55165 15.7785 7.28328C15.606 7.01491 15.3619 6.80632 15.0769 6.68382C14.792 6.56131 14.4789 6.53038 14.1773 6.59492C13.8756 6.65945 13.5989 6.81657 13.382 7.04645C13.165 7.27634 13.0176 7.5687 12.9583 7.88666C12.899 8.20462 12.9305 8.53395 13.0488 8.83311C13.167 9.13227 13.3668 9.38786 13.6229 9.56767C13.8789 9.74747 14.1798 9.84342 14.4877 9.84343ZM5.13624 9.84343C5.52221 9.84336 5.89442 9.69253 6.1808 9.42015C6.46719 9.14776 6.64739 8.77321 6.6865 8.369L6.69481 8.1918C6.69276 7.86778 6.59961 7.55165 6.42711 7.28328C6.25461 7.01491 6.01048 6.80632 5.72551 6.68382C5.44055 6.56131 5.1275 6.53038 4.82586 6.59492C4.52421 6.65945 4.24748 6.81657 4.03054 7.04645C3.81361 7.27634 3.6662 7.5687 3.6069 7.88666C3.5476 8.20462 3.57907 8.53395 3.69733 8.83311C3.81559 9.13227 4.01536 9.38786 4.27143 9.56767C4.52751 9.74747 4.82843 9.84342 5.13624 9.84343Z" fill="#374957"/>
</g>
<defs>
<clipPath id="clip0_5336_115151">
<rect width="20" height="21" fill="white" transform="matrix(-1 0 0 -1 20.25 21)"/>
</clipPath>
</defs>
</svg>
